<svg width="1301" height="221" viewBox="0 0 1301 221" fill="none" xmlns="http://www.w3.org/2000/svg">
<path d="M1252.09 217.326L1250.65 184.037V146.405C1250.65 139.651 1250.26 133.572 1249.49 128.168C1248.72 122.765 1246.79 118.519 1243.7 115.431C1240.62 112.344 1235.6 110.8 1228.65 110.8C1223.83 110.8 1219.88 111.958 1216.79 114.273C1213.7 116.589 1211.1 119.291 1208.98 122.379L1163.54 107.905C1167.6 99.9928 1172.61 93.1419 1178.59 87.3524C1184.77 81.563 1191.9 77.1244 1200.01 74.0366C1208.3 70.756 1217.47 69.1156 1227.5 69.1156C1242.93 69.1156 1256.15 71.9138 1267.14 77.5103C1278.14 83.1068 1286.53 90.9226 1292.32 100.958C1298.11 110.993 1301 122.668 1301 135.984V217.326H1252.09ZM1213.61 220.8C1196.82 220.8 1183.7 217.037 1174.25 209.51C1164.99 201.791 1160.36 190.791 1160.36 176.51C1160.36 161.458 1164.99 150.361 1174.25 143.221C1183.7 135.888 1196.82 132.221 1213.61 132.221H1256.15V162.037H1234.15C1227.4 162.037 1222.19 163.195 1218.53 165.51C1214.86 167.826 1213.03 171.107 1213.03 175.352C1213.03 178.247 1214.28 180.466 1216.79 182.01C1219.3 183.554 1222.77 184.326 1227.21 184.326C1232.03 184.326 1236.18 183.458 1239.65 181.721C1243.12 179.791 1245.82 177.186 1247.75 173.905C1249.68 170.431 1250.65 166.475 1250.65 162.037H1264.25C1264.25 180.756 1259.81 195.23 1250.94 205.458C1242.06 215.686 1229.62 220.8 1213.61 220.8Z" fill="black"/>
<path d="M1000.3 217.326V72.5893H1049.49L1052.39 99.2209V217.326H1000.3ZM1090.87 217.326V143.221H1142.96V217.326H1090.87ZM1090.87 143.221C1090.87 137.624 1090.2 133.089 1088.85 129.616C1087.69 125.949 1085.86 123.151 1083.35 121.221C1081.03 119.291 1078.04 118.23 1074.38 118.037C1067.05 117.651 1061.55 119.291 1057.88 122.958C1054.22 126.624 1052.39 132.414 1052.39 140.326H1038.21C1038.21 125.08 1040.52 112.151 1045.15 101.537C1049.78 90.9226 1056.05 82.9138 1063.96 77.5103C1071.87 71.9138 1080.84 69.1156 1090.87 69.1156C1102.64 69.1156 1112.38 71.5279 1120.1 76.3524C1127.82 80.984 1133.51 88.1244 1137.17 97.7735C1141.03 107.423 1142.96 119.677 1142.96 134.537V143.221H1090.87Z" fill="black"/>
<path d="M919.259 217.326V72.5892H971.348V217.326H919.259ZM945.303 58.6945C937.586 58.6945 930.834 55.7998 925.047 50.0103C919.259 44.2208 916.365 37.4664 916.365 29.7471C916.365 21.8349 919.259 15.0805 925.047 9.48397C930.834 3.69451 937.586 0.799774 945.303 0.799774C953.213 0.799774 959.965 3.69451 965.56 9.48397C971.348 15.0805 974.241 21.8349 974.241 29.7471C974.241 37.4664 971.348 44.2208 965.56 50.0103C959.965 55.7998 953.213 58.6945 945.303 58.6945Z" fill="black"/>
<path d="M919.259 217.326V72.5892H971.348V217.326H919.259ZM945.303 58.6945C937.586 58.6945 930.834 55.7998 925.047 50.0103C919.259 44.2208 916.365 37.4664 916.365 29.7471C916.365 21.8349 919.259 15.0805 925.047 9.48397C930.834 3.69451 937.586 0.799774 945.303 0.799774C953.213 0.799774 959.965 3.69451 965.56 9.48397C971.348 15.0805 974.241 21.8349 974.241 29.7471C974.241 37.4664 971.348 44.2208 965.56 50.0103C959.965 55.7998 953.213 58.6945 945.303 58.6945Z" fill="black"/>
<path d="M835.63 143.51C835.63 127.879 838.717 114.756 844.891 104.142C851.257 93.5279 859.263 85.5191 868.909 80.1156C878.555 74.7121 888.587 72.0104 899.005 72.0104V122.958C889.937 122.958 881.449 123.826 873.539 125.563C865.822 127.107 859.553 129.519 854.73 132.8C850.099 136.081 847.784 140.037 847.784 144.668L835.63 143.51ZM795.696 217.326V72.5893H847.784V217.326H795.696Z" fill="black"/>
<path d="M722.222 217.326L720.775 184.037V146.405C720.775 139.651 720.39 133.572 719.618 128.168C718.846 122.765 716.917 118.519 713.83 115.431C710.744 112.344 705.728 110.8 698.782 110.8C693.959 110.8 690.005 111.958 686.918 114.273C683.831 116.589 681.227 119.291 679.105 122.379L633.672 107.905C637.723 99.9928 642.739 93.1419 648.72 87.3524C654.893 81.563 662.031 77.1244 670.134 74.0366C678.429 70.756 687.593 69.1156 697.625 69.1156C713.059 69.1156 726.274 71.9138 737.27 77.5103C748.267 83.1068 756.659 90.9226 762.446 100.958C768.234 110.993 771.128 122.668 771.128 135.984V217.326H722.222ZM683.735 220.8C666.951 220.8 653.832 217.037 644.379 209.51C635.119 201.791 630.489 190.791 630.489 176.51C630.489 161.458 635.119 150.361 644.379 143.221C653.832 135.888 666.951 132.221 683.735 132.221H726.274V162.037H704.281C697.528 162.037 692.32 163.195 688.654 165.51C684.989 167.826 683.156 171.107 683.156 175.352C683.156 178.247 684.41 180.466 686.918 182.01C689.426 183.554 692.898 184.326 697.335 184.326C702.159 184.326 706.306 183.458 709.779 181.721C713.251 179.791 715.952 177.186 717.882 173.905C719.811 170.431 720.775 166.475 720.775 162.037H734.376C734.376 180.756 729.939 195.23 721.065 205.458C712.19 215.686 699.747 220.8 683.735 220.8Z" fill="black"/>
<path d="M470.438 217.326V14.6945H522.527V217.326H470.438ZM561.014 217.326V143.221H613.103V217.326H561.014ZM561.014 143.221C561.014 137.624 560.339 133.089 558.989 129.616C557.831 125.949 555.999 123.151 553.491 121.221C551.175 119.291 548.185 118.23 544.52 118.037C537.189 117.651 531.691 119.291 528.025 122.958C524.36 126.624 522.527 132.414 522.527 140.326H508.347C508.347 125.08 510.662 112.151 515.292 101.537C519.922 90.9226 526.192 82.9138 534.102 77.5103C542.012 71.9138 550.983 69.1156 561.014 69.1156C572.783 69.1156 582.525 71.5278 590.242 76.3524C597.959 80.984 603.65 88.1243 607.315 97.7735C611.174 107.423 613.103 119.677 613.103 134.537V143.221H561.014Z" fill="black"/>
<path d="M411.461 220.8C393.519 220.8 380.208 216.554 371.526 208.063C362.845 199.572 358.504 187.414 358.504 171.589V27.4314H410.593V157.405C410.593 162.809 411.365 166.668 412.908 168.984C414.451 171.3 417.056 172.458 420.721 172.458C422.265 172.458 424.194 171.975 426.509 171.01C428.824 170.045 430.657 169.08 432.007 168.116L449.659 205.747C445.222 209.607 439.435 213.08 432.296 216.168C425.158 219.256 418.213 220.8 411.461 220.8ZM336.801 116.01V72.5893H440.399V116.01H336.801Z" fill="black"/>
<path d="M273.456 217.326L272.009 184.037V146.405C272.009 139.651 271.623 133.572 270.852 128.168C270.08 122.765 268.151 118.519 265.064 115.431C261.977 112.344 256.961 110.8 250.016 110.8C245.193 110.8 241.238 111.958 238.152 114.273C235.065 116.589 232.46 119.291 230.338 122.379L184.905 107.905C188.957 99.9928 193.973 93.1419 199.953 87.3524C206.127 81.563 213.265 77.1244 221.367 74.0366C229.663 70.756 238.827 69.1156 248.859 69.1156C264.292 69.1156 277.507 71.9138 288.504 77.5103C299.5 83.1068 307.892 90.9226 313.68 100.958C319.468 110.993 322.361 122.668 322.361 135.984V217.326H273.456ZM234.968 220.8C218.184 220.8 205.066 217.037 195.613 209.51C186.352 201.791 181.722 190.791 181.722 176.51C181.722 161.458 186.352 150.361 195.613 143.221C205.066 135.888 218.184 132.221 234.968 132.221H277.507V162.037H255.514C248.762 162.037 243.553 163.195 239.888 165.51C236.222 167.826 234.39 171.107 234.39 175.352C234.39 178.247 235.644 180.466 238.152 182.01C240.66 183.554 244.132 184.326 248.569 184.326C253.392 184.326 257.54 183.458 261.013 181.721C264.485 179.791 267.186 177.186 269.115 173.905C271.045 170.431 272.009 166.475 272.009 162.037H285.61C285.61 180.756 281.173 195.23 272.298 205.458C263.424 215.686 250.981 220.8 234.968 220.8Z" fill="black"/>
<path d="M30.0956 182.879V107.905L114.595 14.6945H184.914L30.0956 182.879ZM0 217.326V14.6945H53.5355V217.326H0ZM120.961 217.326L42.539 114.273L82.7629 83.0103L187.519 217.326H120.961Z" fill="black"/>
</svg>
