<svg width="1086" height="81" viewBox="0 0 1086 81" fill="none" xmlns="http://www.w3.org/2000/svg">
<path d="M1041.32 79.2129V66.0646L1062.57 41.8718H1041.32V26.6199H1085.92V39.7681L1064.67 64.0661H1085.92V79.2129H1041.32Z" fill="#2C9C91"/>
<path d="M1012.16 80.4752C1008.66 80.4752 1005.4 79.9843 1002.38 79.0026C999.366 78.0208 996.771 76.6534 994.597 74.9003C992.494 73.0771 991.021 70.9032 990.18 68.3788L1005.22 62.4883C1005.99 64.3817 1007.08 65.6089 1008.48 66.1699C1009.88 66.6607 1011.11 66.9062 1012.16 66.9062C1013.29 66.9062 1014.2 66.6607 1014.9 66.1699C1015.6 65.679 1015.95 64.9778 1015.95 64.0661C1015.95 63.0844 1015.46 62.278 1014.48 61.6469C1013.5 60.9456 1011.99 60.3496 1009.95 59.8587L1005.64 58.8068C1000.94 57.6147 997.402 55.5461 995.018 52.6009C992.634 49.6556 991.442 46.2196 991.442 42.2926C991.442 36.8931 993.405 32.7207 997.332 29.7755C1001.33 26.8303 1006.73 25.3577 1013.53 25.3577C1017.67 25.3577 1021.14 25.8836 1023.94 26.9354C1026.82 27.9172 1029.17 29.3197 1030.99 31.1429C1032.81 32.9661 1034.22 35.0698 1035.2 37.4541L1020.58 43.0289C1020.09 41.6264 1019.25 40.6096 1018.05 39.9785C1016.93 39.3474 1015.53 39.0318 1013.85 39.0318C1012.65 39.0318 1011.71 39.3123 1011.01 39.8733C1010.38 40.4343 1010.06 41.1005 1010.06 41.8719C1010.06 42.7134 1010.55 43.4497 1011.53 44.0808C1012.58 44.6418 1014.16 45.2028 1016.27 45.7638L1020.58 46.8156C1023.8 47.587 1026.61 48.7791 1028.99 50.3919C1031.38 51.9347 1033.24 53.8631 1034.57 56.1772C1035.9 58.4913 1036.57 61.156 1036.57 64.1713C1036.57 67.6074 1035.55 70.5526 1033.52 73.007C1031.48 75.3912 1028.64 77.2495 1025 78.5818C1021.35 79.8441 1017.07 80.4752 1012.16 80.4752Z" fill="#2C9C91"/>
<path d="M962.827 79.2129V26.6199H981.76V79.2129H962.827ZM972.294 21.5709C969.489 21.5709 967.034 20.5191 964.931 18.4154C962.827 16.3116 961.775 13.8573 961.775 11.0523C961.775 8.17725 962.827 5.7229 964.931 3.6893C967.034 1.58558 969.489 0.533722 972.294 0.533722C975.169 0.533722 977.623 1.58558 979.657 3.6893C981.761 5.7229 982.812 8.17725 982.812 11.0523C982.812 13.8573 981.761 16.3116 979.657 18.4154C977.623 20.5191 975.169 21.5709 972.294 21.5709Z" fill="#2C9C91"/>
<path d="M928.809 80.4752C923.129 80.4752 918.08 79.3181 913.662 77.004C909.245 74.6899 905.774 71.4642 903.249 67.3269C900.795 63.1896 899.568 58.3861 899.568 52.9164C899.568 47.4467 900.795 42.6432 903.249 38.5059C905.703 34.3686 909.104 31.1429 913.452 28.8288C917.8 26.5147 922.814 25.3577 928.494 25.3577C933.893 25.3577 938.627 26.5498 942.694 28.934C946.831 31.2481 950.057 34.7893 952.371 39.5578C954.755 44.3262 955.947 50.3569 955.947 57.6498H916.608L918.922 54.9149C918.922 57.1589 919.272 59.1224 919.974 60.8054C920.675 62.4883 921.727 63.7856 923.129 64.6973C924.532 65.6089 926.25 66.0647 928.283 66.0647C930.597 66.0647 932.596 65.5387 934.279 64.4869C936.032 63.3649 937.119 61.9975 937.54 60.3846L954.159 65.5387C952.897 69.1852 950.863 72.1304 948.058 74.3744C945.324 76.5482 942.238 78.126 938.802 79.1078C935.436 80.0194 932.105 80.4752 928.809 80.4752ZM919.027 49.1297L917.028 46.0793H938.802L936.909 49.1297C936.909 46.3949 936.453 44.2561 935.541 42.7134C934.63 41.1706 933.472 40.0837 932.07 39.4526C930.738 38.7513 929.37 38.4007 927.968 38.4007C926.495 38.4007 925.058 38.7513 923.655 39.4526C922.323 40.0837 921.201 41.1706 920.289 42.7134C919.448 44.2561 919.027 46.3949 919.027 49.1297Z" fill="#2C9C91"/>
<path d="M841.392 79.2129V5.58266H860.325V79.2129H841.392ZM874.315 79.2129V52.2853H893.248V79.2129H874.315ZM874.315 52.2853C874.315 50.2517 874.07 48.6038 873.579 47.3415C873.158 46.0092 872.492 44.9924 871.58 44.2911C870.739 43.5899 869.652 43.2042 868.319 43.1341C865.655 42.9939 863.656 43.5899 862.324 44.9223C860.991 46.2546 860.325 48.3583 860.325 51.2334H855.171C855.171 45.6936 856.013 40.9953 857.696 37.1385C859.379 33.2817 861.658 30.3715 864.533 28.408C867.408 26.3744 870.668 25.3576 874.315 25.3576C878.593 25.3576 882.134 26.2342 884.939 27.9873C887.744 29.6703 889.812 32.2649 891.145 35.7711C892.547 39.2773 893.248 43.7302 893.248 49.1297V52.2853H874.315Z" fill="#2C9C91"/>
<path d="M813.778 79.213L812.832 69.4306V5.58266H831.765V79.213H813.778ZM798.842 80.4752C793.863 80.4752 789.586 79.3883 786.009 77.2144C782.503 75.0406 779.803 71.885 777.91 67.7477C776.017 63.6103 775.07 58.6666 775.07 52.9164C775.07 47.0961 776.017 42.1524 777.91 38.0852C779.803 33.9479 782.503 30.7923 786.009 28.6184C789.586 26.4446 793.863 25.3577 798.842 25.3577C803.19 25.3577 806.766 26.4446 809.571 28.6184C812.446 30.7923 814.55 33.9479 815.882 38.0852C817.285 42.1524 817.986 47.0961 817.986 52.9164C817.986 58.6666 817.285 63.6103 815.882 67.7477C814.55 71.885 812.446 75.0406 809.571 77.2144C806.766 79.3883 803.19 80.4752 798.842 80.4752ZM803.891 63.0143C805.644 63.0143 807.187 62.5935 808.519 61.752C809.922 60.8404 811.009 59.6483 811.78 58.1757C812.551 56.633 812.937 54.8799 812.937 52.9164C812.937 50.9529 812.551 49.2349 811.78 47.7623C811.009 46.2196 809.922 45.0275 808.519 44.186C807.187 43.3445 805.609 42.9237 803.786 42.9237C802.103 42.9237 800.595 43.3445 799.263 44.186C797.93 45.0275 796.878 46.2196 796.107 47.7623C795.336 49.2349 794.915 50.9529 794.845 52.9164C794.915 54.8799 795.336 56.633 796.107 58.1757C796.878 59.6483 797.93 60.8404 799.263 61.752C800.665 62.5935 802.208 63.0143 803.891 63.0143Z" fill="#2C9C91"/>
<path d="M749.348 79.2129V5.58266H768.282V79.2129H749.348Z" fill="#2C9C91"/>
<path d="M721.987 79.2129L720.935 69.5358V26.6199H739.869V79.2129H721.987ZM688.012 53.5475V26.6199H706.945V53.5475H688.012ZM706.945 53.5475C706.945 55.511 707.156 57.1589 707.576 58.4912C708.067 59.8236 708.734 60.8404 709.575 61.5416C710.487 62.2429 711.609 62.6286 712.941 62.6987C715.606 62.7688 717.604 62.1377 718.937 60.8053C720.269 59.473 720.935 57.4043 720.935 54.5994H726.089C726.089 60.1392 725.248 64.8375 723.565 68.6943C721.882 72.5511 719.603 75.4963 716.728 77.5299C713.853 79.4934 710.592 80.4751 706.945 80.4751C702.668 80.4751 699.127 79.6337 696.322 77.9507C693.517 76.1976 691.413 73.5679 690.01 70.0617C688.678 66.5555 688.012 62.1026 688.012 56.7031V53.5475H706.945Z" fill="#2C9C91"/>
<path d="M627.732 79.2129V5.58266H646.666V79.2129H627.732ZM660.655 79.2129V52.2853H679.589V79.2129H660.655ZM660.655 52.2853C660.655 50.2517 660.41 48.6038 659.919 47.3415C659.498 46.0092 658.832 44.9924 657.921 44.2911C657.079 43.5899 655.992 43.2042 654.66 43.1341C651.995 42.9939 649.997 43.5899 648.664 44.9223C647.332 46.2546 646.666 48.3583 646.666 51.2334H641.512C641.512 45.6936 642.353 40.9953 644.036 37.1385C645.719 33.2817 647.998 30.3715 650.873 28.408C653.748 26.3744 657.009 25.3576 660.655 25.3576C664.933 25.3576 668.474 26.2342 671.279 27.9873C674.084 29.6703 676.153 32.2649 677.485 35.7711C678.888 39.2773 679.589 43.7302 679.589 49.1297V52.2853H660.655Z" fill="#2C9C91"/>
<path d="M596.723 80.4752C590.973 80.4752 585.853 79.3181 581.366 77.004C576.878 74.6198 573.371 71.359 570.847 67.2217C568.322 63.0143 567.06 58.2458 567.06 52.9164C567.06 47.5169 568.322 42.7484 570.847 38.6111C573.371 34.4738 576.843 31.2481 581.26 28.934C585.678 26.5498 590.762 25.3577 596.512 25.3577C602.052 25.3577 607.136 26.7952 611.764 29.6703C616.393 32.5454 619.688 36.7177 621.652 42.1874L603.56 48.0779C602.999 46.6754 601.947 45.5183 600.404 44.6067C598.932 43.6951 597.284 43.2393 595.46 43.2393C593.707 43.2393 592.165 43.66 590.832 44.5015C589.5 45.2729 588.448 46.3949 587.677 47.8675C586.905 49.3401 586.52 51.0231 586.52 52.9164C586.52 54.8098 586.905 56.4927 587.677 57.9653C588.448 59.3678 589.535 60.4898 590.937 61.3313C592.34 62.1728 593.918 62.5935 595.671 62.5935C597.424 62.5935 599.037 62.1377 600.509 61.2261C601.982 60.3145 603.034 59.1575 603.665 57.755L621.757 63.5402C619.794 69.0099 616.498 73.2173 611.869 76.1625C607.311 79.0376 602.262 80.4752 596.723 80.4752Z" fill="#2C9C91"/>
<path d="M533.968 80.4751C530.532 80.4751 527.166 80.0193 523.87 79.1077C520.574 78.1259 517.559 76.7936 514.824 75.1106C512.159 73.4276 509.95 71.5343 508.197 69.4305C506.444 67.2567 505.392 64.9777 505.041 62.5934L524.396 57.229C525.027 58.9821 526.114 60.4897 527.656 61.752C529.199 62.9441 531.198 63.6102 533.652 63.7505C535.616 63.8206 537.334 63.2947 538.806 62.1727C540.349 61.0507 541.12 59.5781 541.12 57.7549C541.12 56.5628 540.664 55.4408 539.753 54.3889C538.911 53.2669 537.544 52.4605 535.651 51.9697L524.606 49.1296C520.819 48.1479 517.559 46.6402 514.824 44.6066C512.159 42.573 510.09 40.0836 508.618 37.1384C507.215 34.1932 506.514 30.8974 506.514 27.2509C506.514 20.0281 508.898 14.4182 513.667 10.4211C518.505 6.35394 525.272 4.32034 533.968 4.32034C538.596 4.32034 542.663 4.9164 546.169 6.1085C549.746 7.30061 552.796 9.19396 555.32 11.7886C557.915 14.313 560.054 17.6439 561.737 21.7812L542.488 27.3561C542.137 25.9536 541.225 24.5511 539.753 23.1486C538.35 21.7462 536.422 21.0449 533.968 21.0449C531.583 21.0449 529.725 21.5709 528.393 22.6227C527.131 23.6746 526.499 25.2173 526.499 27.2509C526.499 28.5131 527.025 29.6351 528.077 30.6169C529.129 31.5285 530.637 32.2297 532.6 32.7206L543.75 35.5606C549.36 36.9631 553.743 39.733 556.898 43.8703C560.054 47.9375 561.632 52.6008 561.632 57.8601C561.632 62.6986 560.51 66.8009 558.266 70.1668C556.092 73.5328 552.936 76.0923 548.799 77.8454C544.662 79.5985 539.718 80.4751 533.968 80.4751Z" fill="#2C9C91"/>
<path d="M455.671 79.2129L455.145 67.1165V53.4423C455.145 50.988 455.004 48.7791 454.724 46.8156C454.443 44.8521 453.742 43.3094 452.62 42.1874C451.498 41.0654 449.675 40.5044 447.15 40.5044C445.397 40.5044 443.96 40.9252 442.838 41.7667C441.716 42.6082 440.769 43.5899 439.998 44.7119L423.484 39.4526C424.956 36.5775 426.779 34.0881 428.953 31.9844C431.197 29.8806 433.792 28.2678 436.737 27.1458C439.752 25.9537 443.083 25.3577 446.73 25.3577C452.34 25.3577 457.143 26.3744 461.14 28.408C465.137 30.4416 468.188 33.2817 470.291 36.9281C472.395 40.5746 473.447 44.8171 473.447 49.6556V79.2129H455.671ZM441.681 80.4752C435.58 80.4752 430.812 79.1078 427.376 76.3729C424.01 73.568 422.327 69.5709 422.327 64.3817C422.327 58.912 424.01 54.8799 427.376 52.2853C430.812 49.6206 435.58 48.2882 441.681 48.2882H457.143V59.1224H449.149C446.695 59.1224 444.801 59.5431 443.469 60.3846C442.137 61.2261 441.47 62.4182 441.47 63.961C441.47 65.0128 441.926 65.8192 442.838 66.3802C443.75 66.9412 445.012 67.2217 446.625 67.2217C448.378 67.2217 449.885 66.9062 451.148 66.2751C452.41 65.5738 453.392 64.6271 454.093 63.435C454.794 62.1728 455.145 60.7352 455.145 59.1224H460.088C460.088 65.9244 458.476 71.1837 455.25 74.9003C452.024 78.6169 447.501 80.4752 441.681 80.4752Z" fill="#2C9C91"/>
<path d="M364.145 79.2129V26.6199H382.027L383.079 36.297V79.2129H364.145ZM397.069 79.2129V52.2853H416.002V79.2129H397.069ZM397.069 52.2853C397.069 50.2517 396.823 48.6038 396.332 47.3415C395.912 46.0092 395.245 44.9924 394.334 44.2912C393.492 43.5899 392.405 43.2042 391.073 43.1341C388.408 42.9939 386.41 43.5899 385.077 44.9223C383.745 46.2546 383.079 48.3583 383.079 51.2334H377.925C377.925 45.6936 378.766 40.9953 380.449 37.1385C382.132 33.2817 384.411 30.3715 387.286 28.408C390.161 26.3744 393.422 25.3577 397.069 25.3577C401.346 25.3577 404.888 26.2342 407.692 27.9873C410.497 29.6703 412.566 32.2649 413.898 35.7711C415.301 39.2773 416.002 43.7302 416.002 49.1297V52.2853H397.069Z" fill="#2C9C91"/>
<path d="M334.689 79.2129V26.6199H353.623V79.2129H334.689ZM344.156 21.5709C341.351 21.5709 338.897 20.5191 336.793 18.4154C334.689 16.3116 333.637 13.8573 333.637 11.0523C333.637 8.17725 334.689 5.7229 336.793 3.6893C338.897 1.58558 341.351 0.533722 344.156 0.533722C347.031 0.533722 349.485 1.58558 351.519 3.6893C353.623 5.7229 354.674 8.17725 354.674 11.0523C354.674 13.8573 353.623 16.3116 351.519 18.4154C349.485 20.5191 347.031 21.5709 344.156 21.5709Z" fill="#2C9C91"/>
<path d="M304.291 52.3904C304.291 46.7104 305.413 41.9419 307.657 38.0851C309.971 34.2283 312.881 31.3181 316.387 29.3546C319.894 27.3912 323.54 26.4094 327.327 26.4094V44.9222C324.031 44.9222 320.946 45.2378 318.07 45.8689C315.265 46.4299 312.986 47.3064 311.233 48.4985C309.55 49.6906 308.709 51.1282 308.709 52.8112L304.291 52.3904ZM289.775 79.2129V26.6198H308.709V79.2129H289.775Z" fill="#2C9C91"/>
<path d="M263.069 79.2129L262.543 67.1165V53.4423C262.543 50.988 262.403 48.7791 262.122 46.8156C261.842 44.8521 261.141 43.3094 260.019 42.1874C258.897 41.0654 257.074 40.5044 254.549 40.5044C252.796 40.5044 251.358 40.9252 250.236 41.7667C249.114 42.6082 248.168 43.5899 247.396 44.7119L230.882 39.4526C232.355 36.5775 234.178 34.0881 236.352 31.9844C238.596 29.8806 241.19 28.2678 244.136 27.1458C247.151 25.9537 250.482 25.3577 254.128 25.3577C259.738 25.3577 264.542 26.3744 268.539 28.408C272.536 30.4416 275.586 33.2817 277.69 36.9281C279.794 40.5746 280.846 44.8171 280.846 49.6556V79.2129H263.069ZM249.079 80.4752C242.979 80.4752 238.21 79.1078 234.774 76.3729C231.408 73.568 229.725 69.5709 229.725 64.3817C229.725 58.912 231.408 54.8799 234.774 52.2853C238.21 49.6206 242.979 48.2882 249.079 48.2882H264.542V59.1224H256.548C254.093 59.1224 252.2 59.5431 250.868 60.3846C249.535 61.2261 248.869 62.4182 248.869 63.961C248.869 65.0128 249.325 65.8192 250.236 66.3802C251.148 66.9412 252.41 67.2217 254.023 67.2217C255.776 67.2217 257.284 66.9062 258.546 66.2751C259.808 65.5738 260.79 64.6271 261.491 63.435C262.193 62.1728 262.543 60.7352 262.543 59.1224H267.487C267.487 65.9244 265.874 71.1837 262.648 74.9003C259.423 78.6169 254.9 80.4752 249.079 80.4752Z" fill="#2C9C91"/>
<path d="M171.549 79.2129V5.58266H190.483V79.2129H171.549ZM204.473 79.2129V52.2853H223.406V79.2129H204.473ZM204.473 52.2853C204.473 50.2517 204.227 48.6038 203.736 47.3415C203.315 46.0092 202.649 44.9924 201.738 44.2911C200.896 43.5899 199.809 43.2042 198.477 43.1341C195.812 42.9939 193.814 43.5899 192.481 44.9223C191.149 46.2546 190.483 48.3583 190.483 51.2334H185.329C185.329 45.6936 186.17 40.9953 187.853 37.1385C189.536 33.2817 191.815 30.3715 194.69 28.408C197.565 26.3744 200.826 25.3576 204.473 25.3576C208.75 25.3576 212.291 26.2342 215.096 27.9873C217.901 29.6703 219.97 32.2649 221.302 35.7711C222.705 39.2773 223.406 43.7302 223.406 49.1297V52.2853H204.473Z" fill="#2C9C91"/>
<path d="M150.112 80.475C143.59 80.475 138.751 78.9323 135.596 75.8468C132.44 72.7614 130.863 68.3436 130.863 62.5934V10.2107H149.796V57.4393C149.796 59.4027 150.077 60.8052 150.638 61.6467C151.199 62.4882 152.145 62.909 153.478 62.909C154.039 62.909 154.74 62.7336 155.581 62.383C156.423 62.0324 157.089 61.6818 157.58 61.3312L163.996 75.0053C162.383 76.4078 160.28 77.6701 157.685 78.792C155.09 79.914 152.566 80.475 150.112 80.475ZM122.974 42.3977V26.6197H160.63V42.3977H122.974Z" fill="#2C9C91"/>
<path d="M99.9484 79.2129L99.4224 67.1165V53.4423C99.4224 50.988 99.2822 48.7791 99.0017 46.8156C98.7212 44.8521 98.02 43.3094 96.898 42.1874C95.776 41.0654 93.9528 40.5044 91.4283 40.5044C89.6752 40.5044 88.2377 40.9252 87.1157 41.7667C85.9937 42.6082 85.047 43.5899 84.2757 44.7119L67.7614 39.4526C69.234 36.5775 71.0573 34.0881 73.2311 31.9844C75.4751 29.8806 78.0697 28.2678 81.0149 27.1458C84.0302 25.9537 87.3611 25.3577 91.0076 25.3577C96.6175 25.3577 101.421 26.3744 105.418 28.408C109.415 30.4416 112.466 33.2817 114.569 36.9281C116.673 40.5746 117.725 44.8171 117.725 49.6556V79.2129H99.9484ZM85.9586 80.4752C79.8578 80.4752 75.0894 79.1078 71.6533 76.3729C68.2874 73.568 66.6044 69.5709 66.6044 64.3817C66.6044 58.912 68.2874 54.8799 71.6533 52.2853C75.0894 49.6206 79.8578 48.2882 85.9586 48.2882H101.421V59.1224H93.4268C90.9725 59.1224 89.0791 59.5431 87.7468 60.3846C86.4144 61.2261 85.7483 62.4182 85.7483 63.961C85.7483 65.0128 86.2041 65.8192 87.1157 66.3802C88.0273 66.9412 89.2895 67.2217 90.9024 67.2217C92.6555 67.2217 94.1631 66.9062 95.4254 66.2751C96.6876 65.5738 97.6693 64.6271 98.3706 63.435C99.0718 62.1728 99.4224 60.7352 99.4224 59.1224H104.366C104.366 65.9244 102.753 71.1837 99.5276 74.9003C96.3019 78.6169 91.7789 80.4752 85.9586 80.4752Z" fill="#2C9C91"/>
<path d="M11.49 66.6958V39.4526L42.2043 5.58266H67.7646L11.49 66.6958ZM0.550648 79.2129V5.58266H20.0101V79.2129H0.550648ZM44.5184 79.2129L16.013 41.7667L30.6339 30.4066L68.7113 79.2129H44.5184Z" fill="#2C9C91"/>
</svg>
