<svg width="930" height="71" viewBox="0 0 930 71" fill="none" xmlns="http://www.w3.org/2000/svg">
<path d="M891.193 69.5985V62.6455L918.052 29.6902H891.193V21.9753H929.577V28.7378L902.622 61.8836H929.767V69.5985H891.193Z" fill="#2C9C91"/>
<path d="M866.255 70.7415C862.89 70.7415 859.873 70.2335 857.207 69.2176C854.603 68.2016 852.381 66.8364 850.539 65.122C848.761 63.4075 847.428 61.4708 846.539 59.3119L854.349 55.883C855.365 57.8515 856.889 59.4707 858.921 60.7406C860.953 62.0106 863.207 62.6455 865.684 62.6455C868.414 62.6455 870.668 62.1376 872.446 61.1216C874.224 60.1056 875.113 58.6769 875.113 56.8355C875.113 55.0576 874.446 53.6606 873.113 52.6447C871.779 51.6287 869.843 50.8032 867.303 50.1683L862.826 49.0253C858.381 47.8188 854.921 46.0092 852.444 43.5962C850.031 41.1833 848.825 38.4529 848.825 35.405C848.825 30.7697 850.317 27.1821 853.301 24.6422C856.286 22.1023 860.699 20.8323 866.541 20.8323C869.398 20.8323 872.001 21.2451 874.351 22.0705C876.764 22.896 878.796 24.0707 880.447 25.5946C882.161 27.1186 883.368 28.9283 884.066 31.0237L876.446 34.4526C875.684 32.5476 874.383 31.1507 872.541 30.2617C870.7 29.3093 868.541 28.833 866.064 28.833C863.525 28.833 861.524 29.4045 860.064 30.5475C858.604 31.6269 857.873 33.1509 857.873 35.1193C857.873 36.1988 858.476 37.2465 859.683 38.2624C860.953 39.2149 862.794 40.0086 865.207 40.6436L870.351 41.8818C873.462 42.6438 876.034 43.8185 878.066 45.4059C880.097 46.9299 881.621 48.6761 882.637 50.6445C883.653 52.5494 884.161 54.5496 884.161 56.645C884.161 59.5024 883.368 62.0106 881.78 64.1695C880.256 66.2649 878.129 67.8841 875.399 69.0271C872.732 70.17 869.684 70.7415 866.255 70.7415Z" fill="#2C9C91"/>
<path d="M826.896 69.5986V21.9753H835.944V69.5986H826.896ZM831.468 11.8792C830.007 11.8792 828.737 11.3395 827.658 10.26C826.578 9.11704 826.039 7.81533 826.039 6.35489C826.039 4.83094 826.578 3.56099 827.658 2.54502C828.737 1.46556 830.007 0.925835 831.468 0.925835C832.992 0.925835 834.262 1.46556 835.277 2.54502C836.357 3.56099 836.897 4.83094 836.897 6.35489C836.897 7.81533 836.357 9.11704 835.277 10.26C834.262 11.3395 832.992 11.8792 831.468 11.8792Z" fill="#2C9C91"/>
<path d="M795.193 70.7415C790.558 70.7415 786.462 69.6938 782.906 67.5984C779.35 65.4394 776.556 62.4868 774.524 58.7404C772.492 54.9941 771.477 50.6762 771.477 45.7869C771.477 40.8976 772.492 36.5797 774.524 32.8334C776.556 29.087 779.35 26.1661 782.906 24.0707C786.525 21.9118 790.653 20.8323 795.288 20.8323C799.669 20.8323 803.511 21.9435 806.813 24.1659C810.115 26.3249 812.686 29.4363 814.528 33.5001C816.433 37.5005 817.385 42.231 817.385 47.6918H778.906L780.62 46.2631C780.62 49.6285 781.287 52.5494 782.62 55.0258C783.954 57.5022 785.763 59.4072 788.049 60.7406C790.335 62.0106 792.939 62.6455 795.86 62.6455C799.034 62.6455 801.67 61.9153 803.765 60.4549C805.924 58.9309 807.607 57.026 808.813 54.7401L816.623 58.3595C815.353 60.8359 813.702 63.0265 811.671 64.9315C809.639 66.7729 807.226 68.2016 804.432 69.2176C801.701 70.2335 798.622 70.7415 795.193 70.7415ZM781.192 41.977L779.382 40.5484H809.48L807.765 41.977C807.765 39.1831 807.194 36.802 806.051 34.8336C804.908 32.8016 803.384 31.2777 801.479 30.2617C799.574 29.1823 797.447 28.6425 795.098 28.6425C792.812 28.6425 790.589 29.1823 788.43 30.2617C786.335 31.2777 784.589 32.7699 783.192 34.7383C781.858 36.7067 781.192 39.1197 781.192 41.977Z" fill="#2C9C91"/>
<path d="M720.849 69.5986V2.92599H729.802V69.5986H720.849ZM753.804 69.5986V45.2155H762.757V69.5986H753.804ZM753.804 45.2155C753.804 40.8976 753.296 37.6275 752.28 35.4051C751.264 33.1191 749.867 31.5317 748.089 30.6427C746.375 29.7538 744.406 29.2775 742.184 29.214C738.247 29.214 735.199 30.5792 733.04 33.3096C730.881 36.04 729.802 39.8817 729.802 44.8345H725.992C725.992 39.8182 726.722 35.5321 728.183 31.9762C729.707 28.3568 731.834 25.5947 734.564 23.6897C737.358 21.7848 740.66 20.8323 744.47 20.8323C748.216 20.8323 751.455 21.5943 754.185 23.1183C756.915 24.6422 759.043 27.0234 760.566 30.2618C762.09 33.4366 762.821 37.6275 762.757 42.8343V45.2155H753.804Z" fill="#2C9C91"/>
<path d="M699.619 69.5986L699.238 60.7406V2.92599H708.191V69.5986H699.619ZM683.617 70.7415C679.3 70.7415 675.522 69.6938 672.283 67.5984C669.108 65.503 666.6 62.5821 664.759 58.8357C662.981 55.0894 662.092 50.7398 662.092 45.7869C662.092 40.7706 662.981 36.421 664.759 32.7382C666.6 28.9918 669.108 26.0709 672.283 23.9755C675.522 21.8801 679.3 20.8323 683.617 20.8323C687.618 20.8323 691.078 21.8801 693.999 23.9755C696.984 26.0709 699.27 28.9918 700.857 32.7382C702.445 36.421 703.238 40.7706 703.238 45.7869C703.238 50.7398 702.445 55.0894 700.857 58.8357C699.27 62.5821 696.984 65.503 693.999 67.5984C691.078 69.6938 687.618 70.7415 683.617 70.7415ZM685.713 62.5503C688.38 62.5503 690.729 61.8519 692.761 60.4549C694.793 58.9945 696.381 57.026 697.523 54.5496C698.666 52.0097 699.238 49.0888 699.238 45.7869C699.238 42.4851 698.666 39.5959 697.523 37.1195C696.381 34.5796 694.793 32.6112 692.761 31.2142C690.729 29.7538 688.348 29.0235 685.618 29.0235C682.824 29.0235 680.347 29.7538 678.188 31.2142C676.03 32.6112 674.347 34.5796 673.14 37.1195C671.934 39.5959 671.331 42.4851 671.331 45.7869C671.331 49.0888 671.934 52.0097 673.14 54.5496C674.41 57.026 676.125 58.9945 678.284 60.4549C680.443 61.8519 682.919 62.5503 685.713 62.5503Z" fill="#2C9C91"/>
<path d="M643.179 69.5986V2.92599H652.228V69.5986H643.179Z" fill="#2C9C91"/>
<path d="M622.173 69.5985L621.602 60.8358V21.9753H630.555V69.5985H622.173ZM588.646 46.3584V21.9753H597.695V46.3584H588.646ZM597.695 46.3584C597.695 50.6127 598.171 53.8828 599.124 56.1688C600.14 58.4547 601.536 60.0421 603.314 60.9311C605.092 61.8201 607.092 62.2963 609.315 62.3598C613.188 62.3598 616.204 60.9946 618.363 58.2642C620.522 55.5338 621.602 51.6922 621.602 46.7394H625.507C625.507 51.7557 624.745 56.0735 623.221 59.6929C621.76 63.2488 619.665 65.9792 616.935 67.8841C614.204 69.789 610.871 70.7415 606.934 70.7415C603.251 70.7415 600.012 69.9795 597.219 68.4556C594.488 66.9316 592.361 64.5505 590.837 61.3121C589.377 58.0737 588.646 53.8828 588.646 48.7395V46.3584H597.695Z" fill="#2C9C91"/>
<path d="M536.495 69.5986V2.92599H545.448V69.5986H536.495ZM569.45 69.5986V45.2155H578.403V69.5986H569.45ZM569.45 45.2155C569.45 40.8976 568.942 37.6275 567.926 35.4051C566.91 33.1191 565.513 31.5317 563.735 30.6427C562.021 29.7538 560.052 29.2775 557.83 29.214C553.893 29.214 550.845 30.5792 548.686 33.3096C546.527 36.04 545.448 39.8817 545.448 44.8345H541.638C541.638 39.8182 542.368 35.5321 543.829 31.9762C545.352 28.3568 547.48 25.5947 550.21 23.6897C553.004 21.7848 556.306 20.8323 560.116 20.8323C563.862 20.8323 567.1 21.5943 569.831 23.1183C572.561 24.6422 574.688 27.0234 576.212 30.2618C577.736 33.4366 578.467 37.6275 578.403 42.8343V45.2155H569.45Z" fill="#2C9C91"/>
<path d="M506.493 70.7415C501.73 70.7415 497.508 69.6938 493.825 67.5984C490.142 65.4394 487.253 62.4868 485.157 58.7404C483.125 54.9941 482.109 50.6762 482.109 45.7869C482.109 40.8976 483.125 36.5797 485.157 32.8334C487.253 29.087 490.11 26.1661 493.73 24.0707C497.412 21.9118 501.603 20.8323 506.302 20.8323C510.937 20.8323 515.096 21.9118 518.779 24.0707C522.526 26.2296 525.32 29.3093 527.161 33.3096L518.97 36.7385C517.763 34.3891 516.017 32.5476 513.731 31.2142C511.509 29.8807 508.937 29.214 506.016 29.214C503.159 29.214 500.619 29.9125 498.397 31.3094C496.174 32.7064 494.428 34.6748 493.158 37.2147C491.888 39.6911 491.253 42.5485 491.253 45.7869C491.253 49.0253 491.888 51.8827 493.158 54.3591C494.428 56.8355 496.206 58.8039 498.492 60.2644C500.778 61.6613 503.349 62.3598 506.207 62.3598C509.128 62.3598 511.731 61.6296 514.017 60.1691C516.303 58.6452 518.017 56.6133 519.16 54.0734L527.447 57.407C525.605 61.5978 522.811 64.868 519.065 67.2174C515.382 69.5668 511.191 70.7415 506.493 70.7415Z" fill="#2C9C91"/>
<path d="M450.173 70.7414C446.617 70.7414 443.378 70.3287 440.458 69.5032C437.6 68.6778 435.092 67.5665 432.933 66.1696C430.838 64.7091 429.091 63.09 427.695 61.312C426.298 59.5341 425.313 57.6609 424.742 55.6925L433.79 52.7398C434.743 55.3432 436.552 57.5974 439.219 59.5023C441.886 61.4073 445.156 62.3915 449.03 62.455C453.729 62.455 457.411 61.5343 460.078 59.6928C462.809 57.7879 464.174 55.2797 464.174 52.1684C464.174 49.311 462.999 46.9933 460.65 45.2154C458.3 43.3739 455.189 41.977 451.316 41.0245L443.601 39.0243C440.553 38.1989 437.759 37.0242 435.219 35.5002C432.743 33.9763 430.774 32.0396 429.314 29.6902C427.853 27.3408 427.123 24.5151 427.123 21.2132C427.123 15.1175 429.091 10.3551 433.028 6.92625C437.029 3.49738 442.775 1.78294 450.268 1.78294C454.586 1.78294 458.332 2.48142 461.507 3.87836C464.682 5.21182 467.285 6.98975 469.317 9.21217C471.413 11.4346 472.905 13.8793 473.794 16.5462L464.745 19.594C463.666 16.7366 461.825 14.4507 459.221 12.7363C456.618 10.9584 453.411 10.0694 449.601 10.0694C445.601 10.0694 442.426 11.0219 440.077 12.9268C437.791 14.8317 436.648 17.4351 436.648 20.737C436.648 23.5309 437.537 25.6898 439.315 27.2138C441.156 28.6742 443.601 29.7854 446.649 30.5474L454.364 32.4523C460.586 33.9763 465.38 36.5162 468.746 40.072C472.175 43.5644 473.889 47.406 473.889 51.5969C473.889 55.2163 472.968 58.4864 471.127 61.4073C469.349 64.2647 466.682 66.5506 463.126 68.265C459.634 69.916 455.316 70.7414 450.173 70.7414Z" fill="#2C9C91"/>
<path d="M383.332 69.5985L382.951 61.3121V44.7392C382.951 41.2468 382.538 38.3259 381.713 35.9765C380.951 33.6271 379.744 31.8492 378.093 30.6427C376.506 29.4363 374.379 28.833 371.712 28.833C369.236 28.833 367.077 29.341 365.235 30.357C363.457 31.3729 361.965 32.9604 360.759 35.1193L352.758 32.0714C353.901 29.9125 355.33 28.0076 357.044 26.3566C358.758 24.6422 360.822 23.3087 363.235 22.3563C365.648 21.3403 368.474 20.8323 371.712 20.8323C376.22 20.8323 379.967 21.7213 382.951 23.4992C385.935 25.2772 388.158 27.8488 389.618 31.2142C391.142 34.5796 391.872 38.7387 391.809 43.6915L391.714 69.5985H383.332ZM369.331 70.7415C363.68 70.7415 359.266 69.4715 356.092 66.9316C352.98 64.3282 351.424 60.7406 351.424 56.1688C351.424 51.2795 353.044 47.5648 356.282 45.0249C359.584 42.4215 364.156 41.1198 369.998 41.1198H383.237V48.2633H372.474C368.093 48.2633 365.013 48.9618 363.235 50.3587C361.457 51.6922 360.568 53.5654 360.568 55.9783C360.568 58.2007 361.394 59.9469 363.045 61.2169C364.759 62.4233 367.108 63.0265 370.093 63.0265C372.696 63.0265 374.95 62.4868 376.855 61.4073C378.76 60.2644 380.252 58.6769 381.332 56.645C382.411 54.6131 382.951 52.2954 382.951 49.692H386.094C386.094 56.1688 384.697 61.3121 381.903 65.122C379.173 68.8683 374.982 70.7415 369.331 70.7415Z" fill="#2C9C91"/>
<path d="M300.701 69.5985V21.9753H309.178L309.75 30.738V69.5985H300.701ZM333.656 69.5985V45.2154H342.705V69.5985H333.656ZM333.656 45.2154C333.656 40.8976 333.148 37.6275 332.133 35.405C331.18 33.1191 329.815 31.5317 328.037 30.6427C326.323 29.7537 324.322 29.2775 322.036 29.214C318.163 29.214 315.147 30.5792 312.988 33.3096C310.829 36.04 309.75 39.8816 309.75 44.8344H305.844C305.844 39.8181 306.575 35.532 308.035 31.9762C309.559 28.3568 311.686 25.5946 314.417 23.6897C317.211 21.7848 320.512 20.8323 324.322 20.8323C328.069 20.8323 331.307 21.5943 334.037 23.1182C336.831 24.6422 338.959 27.0233 340.419 30.2617C341.943 33.4366 342.705 37.6275 342.705 42.8343V45.2154H333.656Z" fill="#2C9C91"/>
<path d="M278.391 69.5986V21.9753H287.44V69.5986H278.391ZM282.963 11.8792C281.503 11.8792 280.233 11.3395 279.153 10.26C278.074 9.11704 277.534 7.81533 277.534 6.35489C277.534 4.83094 278.074 3.56099 279.153 2.54502C280.233 1.46556 281.503 0.925835 282.963 0.925835C284.487 0.925835 285.757 1.46556 286.773 2.54502C287.852 3.56099 288.392 4.83094 288.392 6.35489C288.392 7.81533 287.852 9.11704 286.773 10.26C285.757 11.3395 284.487 11.8792 282.963 11.8792Z" fill="#2C9C91"/>
<path d="M250.138 43.9772C250.138 38.8339 251.122 34.643 253.091 31.4046C255.059 28.1663 257.599 25.7533 260.71 24.1659C263.822 22.5785 267.092 21.7847 270.521 21.7847V30.3569C267.663 30.3569 264.933 30.8014 262.329 31.6904C259.79 32.5158 257.694 33.9128 256.043 35.8812C254.456 37.7862 253.662 40.3896 253.662 43.6914L250.138 43.9772ZM244.614 69.5985V21.9752H253.662V69.5985H244.614Z" fill="#2C9C91"/>
<path d="M224.743 69.5985L224.362 61.3121V44.7392C224.362 41.2468 223.949 38.3259 223.124 35.9765C222.362 33.6271 221.155 31.8492 219.504 30.6427C217.917 29.4363 215.79 28.833 213.123 28.833C210.646 28.833 208.487 29.341 206.646 30.357C204.868 31.3729 203.376 32.9604 202.169 35.1193L194.169 32.0714C195.312 29.9125 196.74 28.0076 198.455 26.3566C200.169 24.6422 202.233 23.3087 204.646 22.3563C207.059 21.3403 209.884 20.8323 213.123 20.8323C217.631 20.8323 221.377 21.7213 224.362 23.4992C227.346 25.2772 229.569 27.8488 231.029 31.2142C232.553 34.5796 233.283 38.7387 233.22 43.6915L233.125 69.5985H224.743ZM210.742 70.7415C205.09 70.7415 200.677 69.4715 197.502 66.9316C194.391 64.3282 192.835 60.7406 192.835 56.1688C192.835 51.2795 194.454 47.5648 197.693 45.0249C200.995 42.4215 205.567 41.1198 211.408 41.1198H224.648V48.2633H213.885C209.503 48.2633 206.424 48.9618 204.646 50.3587C202.868 51.6922 201.979 53.5654 201.979 55.9783C201.979 58.2007 202.804 59.9469 204.455 61.2169C206.17 62.4233 208.519 63.0265 211.504 63.0265C214.107 63.0265 216.361 62.4868 218.266 61.4073C220.171 60.2644 221.663 58.6769 222.743 56.645C223.822 54.6131 224.362 52.2954 224.362 49.692H227.505C227.505 56.1688 226.108 61.3121 223.314 65.122C220.584 68.8683 216.393 70.7415 210.742 70.7415Z" fill="#2C9C91"/>
<path d="M142.207 69.5986V2.92599H151.161V69.5986H142.207ZM175.163 69.5986V45.2155H184.116V69.5986H175.163ZM175.163 45.2155C175.163 40.8976 174.655 37.6275 173.639 35.4051C172.623 33.1191 171.226 31.5317 169.448 30.6427C167.733 29.7538 165.765 29.2775 163.543 29.214C159.606 29.214 156.558 30.5792 154.399 33.3096C152.24 36.04 151.161 39.8817 151.161 44.8345H147.351C147.351 39.8182 148.081 35.5321 149.541 31.9762C151.065 28.3568 153.192 25.5947 155.923 23.6897C158.717 21.7848 162.019 20.8323 165.829 20.8323C169.575 20.8323 172.813 21.5943 175.544 23.1183C178.274 24.6422 180.401 27.0234 181.925 30.2618C183.449 33.4366 184.179 37.6275 184.116 42.8343V45.2155H175.163Z" fill="#2C9C91"/>
<path d="M123.94 70.7415C119.178 70.7415 115.495 69.5351 112.892 67.1222C110.288 64.6457 108.986 61.1216 108.986 56.5498V7.11684H118.035V55.2163C118.035 57.5658 118.606 59.3754 119.749 60.6454C120.956 61.8518 122.67 62.4551 124.893 62.4551C125.528 62.4551 126.226 62.3281 126.988 62.0741C127.75 61.8201 128.671 61.3121 129.75 60.5501L133.179 67.5984C131.528 68.6779 129.941 69.4716 128.417 69.9796C126.956 70.4875 125.464 70.7415 123.94 70.7415ZM100.89 29.7855V21.9753H131.56V29.7855H100.89Z" fill="#2C9C91"/>
<path d="M85.6866 69.5985L85.3056 61.3121V44.7392C85.3056 41.2468 84.8929 38.3259 84.0674 35.9765C83.3055 33.6271 82.099 31.8492 80.4481 30.6427C78.8606 29.4363 76.7334 28.833 74.0665 28.833C71.5901 28.833 69.4312 29.341 67.5898 30.357C65.8118 31.3729 64.3196 32.9604 63.1132 35.1193L55.1125 32.0714C56.2554 29.9125 57.6841 28.0076 59.3986 26.3566C61.113 24.6422 63.1767 23.3087 65.5896 22.3563C68.0025 21.3403 70.8282 20.8323 74.0665 20.8323C78.5749 20.8323 82.3212 21.7213 85.3056 23.4992C88.29 25.2772 90.5124 27.8488 91.9729 31.2142C93.4968 34.5796 94.2271 38.7387 94.1636 43.6915L94.0683 69.5985H85.6866ZM71.6854 70.7415C66.0341 70.7415 61.621 69.4715 58.4461 66.9316C55.3347 64.3282 53.779 60.7406 53.779 56.1688C53.779 51.2795 55.3982 47.5648 58.6366 45.0249C61.9385 42.4215 66.5103 41.1198 72.3521 41.1198H85.5914V48.2633H74.8285C70.4472 48.2633 67.3675 48.9618 65.5896 50.3587C63.8117 51.6922 62.9227 53.5654 62.9227 55.9783C62.9227 58.2007 63.7482 59.9469 65.3991 61.2169C67.1135 62.4233 69.463 63.0265 72.4474 63.0265C75.0508 63.0265 77.3049 62.4868 79.2098 61.4073C81.1148 60.2644 82.607 58.6769 83.6864 56.645C84.7659 54.6131 85.3056 52.2954 85.3056 49.692H88.4488C88.4488 56.1688 87.0518 61.3121 84.2579 65.122C81.5275 68.8683 77.3367 70.7415 71.6854 70.7415Z" fill="#2C9C91"/>
<path d="M6.59851 48.4538L3.83636 38.5482L37.8394 2.92599H49.7452L6.59851 48.4538ZM0.502731 69.5986V2.92599H9.55115V69.5986H0.502731ZM39.4586 69.5986L12.3133 35.6908L18.6948 29.7855L50.9834 69.5986H39.4586Z" fill="#2C9C91"/>
</svg>
