<svg width="581" height="184" viewBox="0 0 581 184" fill="none" xmlns="http://www.w3.org/2000/svg">
<path d="M509.12 78.9542L508.594 66.8578V53.1836C508.594 50.7292 508.454 48.5203 508.173 46.5569C507.893 44.5934 507.192 43.0507 506.07 41.9287C504.948 40.8067 503.124 40.2457 500.6 40.2457C498.847 40.2457 497.409 40.6664 496.287 41.5079C495.165 42.3494 494.219 43.3312 493.447 44.4531L476.933 39.1938C478.406 36.3187 480.229 33.8293 482.403 31.7256C484.647 29.6219 487.241 28.009 490.186 26.8871C493.202 25.6949 496.533 25.0989 500.179 25.0989C505.789 25.0989 510.593 26.1157 514.59 28.1493C518.587 30.1829 521.637 33.0229 523.741 36.6694C525.845 40.3158 526.896 44.5583 526.896 49.3969V78.9542H509.12ZM495.13 80.2164C489.029 80.2164 484.261 78.849 480.825 76.1142C477.459 73.3092 475.776 69.3121 475.776 64.1229C475.776 58.6533 477.459 54.6211 480.825 52.0265C484.261 49.3618 489.029 48.0295 495.13 48.0295H510.593V58.8636H502.598C500.144 58.8636 498.251 59.2844 496.918 60.1259C495.586 60.9674 494.92 62.1595 494.92 63.7022C494.92 64.7541 495.376 65.5605 496.287 66.1215C497.199 66.6825 498.461 66.963 500.074 66.963C501.827 66.963 503.335 66.6474 504.597 66.0163C505.859 65.3151 506.841 64.3684 507.542 63.1763C508.243 61.914 508.594 60.4765 508.594 58.8636H513.538C513.538 65.6657 511.925 70.925 508.699 74.6416C505.473 78.3581 500.95 80.2164 495.13 80.2164Z" fill="#1E1E1E"/>
<path d="M417.595 78.9542V26.3611H435.476L436.528 36.0382V78.9542H417.595ZM450.518 78.9542V52.0265H469.452V78.9542H450.518ZM450.518 52.0265C450.518 49.9929 450.273 48.345 449.782 47.0828C449.361 45.7504 448.695 44.7336 447.783 44.0324C446.942 43.3312 445.855 42.9455 444.522 42.8753C441.858 42.7351 439.859 43.3311 438.527 44.6635C437.194 45.9959 436.528 48.0996 436.528 50.9747H431.374C431.374 45.4349 432.216 40.7366 433.899 36.8797C435.582 33.0229 437.861 30.1128 440.736 28.1493C443.611 26.1157 446.872 25.0989 450.518 25.0989C454.796 25.0989 458.337 25.9754 461.142 27.7285C463.947 29.4115 466.015 32.0061 467.348 35.5123C468.75 39.0185 469.452 43.4714 469.452 48.871V52.0265H450.518Z" fill="#1E1E1E"/>
<path d="M388.139 78.9542V26.3611H407.072V78.9542H388.139ZM397.605 21.3122C394.8 21.3122 392.346 20.2603 390.242 18.1566C388.139 16.0529 387.087 13.5985 387.087 10.7936C387.087 7.91849 388.139 5.46414 390.242 3.43054C392.346 1.32682 394.8 0.274963 397.605 0.274963C400.48 0.274963 402.935 1.32682 404.968 3.43054C407.072 5.46414 408.124 7.91849 408.124 10.7936C408.124 13.5985 407.072 16.0529 404.968 18.1566C402.935 20.2603 400.48 21.3122 397.605 21.3122Z" fill="#1E1E1E"/>
<path d="M357.74 52.1316C357.74 46.4516 358.862 41.6832 361.106 37.8263C363.42 33.9695 366.331 31.0594 369.837 29.0959C373.343 27.1324 376.989 26.1507 380.776 26.1507V44.6634C377.48 44.6634 374.395 44.979 371.52 45.6101C368.715 46.1711 366.436 47.0477 364.683 48.2398C363 49.4319 362.158 50.8694 362.158 52.5524L357.74 52.1316ZM343.225 78.9541V26.3611H362.158V78.9541H343.225Z" fill="#1E1E1E"/>
<path d="M316.519 78.9542L315.993 66.8578V53.1836C315.993 50.7292 315.852 48.5203 315.572 46.5569C315.291 44.5934 314.59 43.0507 313.468 41.9287C312.346 40.8067 310.523 40.2457 307.998 40.2457C306.245 40.2457 304.808 40.6664 303.686 41.5079C302.564 42.3494 301.617 43.3312 300.846 44.4531L284.332 39.1938C285.804 36.3187 287.627 33.8293 289.801 31.7256C292.045 29.6219 294.64 28.009 297.585 26.8871C300.6 25.6949 303.931 25.0989 307.578 25.0989C313.188 25.0989 317.991 26.1157 321.988 28.1493C325.985 30.1829 329.036 33.0229 331.139 36.6694C333.243 40.3158 334.295 44.5583 334.295 49.3969V78.9542H316.519ZM302.529 80.2164C296.428 80.2164 291.66 78.849 288.223 76.1142C284.857 73.3092 283.174 69.3121 283.174 64.1229C283.174 58.6533 284.857 54.6211 288.223 52.0265C291.66 49.3618 296.428 48.0295 302.529 48.0295H317.991V58.8636H309.997C307.543 58.8636 305.649 59.2844 304.317 60.1259C302.985 60.9674 302.318 62.1595 302.318 63.7022C302.318 64.7541 302.774 65.5605 303.686 66.1215C304.597 66.6825 305.86 66.963 307.473 66.963C309.226 66.963 310.733 66.6474 311.995 66.0163C313.258 65.3151 314.239 64.3684 314.941 63.1763C315.642 61.914 315.993 60.4765 315.993 58.8636H320.936C320.936 65.6657 319.323 70.925 316.098 74.6416C312.872 78.3581 308.349 80.2164 302.529 80.2164Z" fill="#1E1E1E"/>
<path d="M224.999 78.9542V5.3239H243.932V78.9542H224.999ZM257.922 78.9542V52.0265H276.855V78.9542H257.922ZM257.922 52.0265C257.922 49.9929 257.676 48.345 257.186 47.0828C256.765 45.7504 256.099 44.7336 255.187 44.0324C254.346 43.3311 253.259 42.9455 251.926 42.8753C249.262 42.7351 247.263 43.3311 245.931 44.6635C244.598 45.9959 243.932 48.0996 243.932 50.9747H238.778C238.778 45.4349 239.62 40.7366 241.303 36.8797C242.985 33.0229 245.265 30.1128 248.14 28.1493C251.015 26.1157 254.275 25.0989 257.922 25.0989C262.199 25.0989 265.741 25.9754 268.546 27.7285C271.351 29.4115 273.419 32.0061 274.752 35.5123C276.154 39.0185 276.855 43.4714 276.855 48.8709V52.0265H257.922Z" fill="#1E1E1E"/>
<path d="M203.561 80.2163C197.039 80.2163 192.201 78.6735 189.045 75.5881C185.89 72.5026 184.312 68.0848 184.312 62.3346V9.95195H203.245V57.1805C203.245 59.144 203.526 60.5465 204.087 61.388C204.648 62.2294 205.595 62.6502 206.927 62.6502C207.488 62.6502 208.189 62.4749 209.031 62.1243C209.872 61.7736 210.538 61.423 211.029 61.0724L217.445 74.7466C215.833 76.1491 213.729 77.4113 211.134 78.5333C208.54 79.6553 206.015 80.2163 203.561 80.2163ZM176.423 42.1389V26.361H214.08V42.1389H176.423Z" fill="#1E1E1E"/>
<path d="M153.398 78.9542L152.872 66.8578V53.1836C152.872 50.7292 152.732 48.5203 152.451 46.5569C152.171 44.5934 151.469 43.0507 150.347 41.9287C149.225 40.8067 147.402 40.2457 144.878 40.2457C143.125 40.2457 141.687 40.6664 140.565 41.5079C139.443 42.3494 138.496 43.3312 137.725 44.4531L121.211 39.1938C122.683 36.3187 124.507 33.8293 126.68 31.7256C128.924 29.6219 131.519 28.009 134.464 26.8871C137.48 25.6949 140.81 25.0989 144.457 25.0989C150.067 25.0989 154.87 26.1157 158.867 28.1493C162.864 30.1829 165.915 33.0229 168.019 36.6694C170.122 40.3158 171.174 44.5583 171.174 49.3969V78.9542H153.398ZM139.408 80.2164C133.307 80.2164 128.539 78.849 125.103 76.1142C121.737 73.3092 120.054 69.3121 120.054 64.1229C120.054 58.6533 121.737 54.6211 125.103 52.0265C128.539 49.3618 133.307 48.0295 139.408 48.0295H154.87V58.8636H146.876C144.422 58.8636 142.528 59.2844 141.196 60.1259C139.864 60.9674 139.198 62.1595 139.198 63.7022C139.198 64.7541 139.653 65.5605 140.565 66.1215C141.477 66.6825 142.739 66.963 144.352 66.963C146.105 66.963 147.612 66.6474 148.875 66.0163C150.137 65.3151 151.119 64.3684 151.82 63.1763C152.521 61.914 152.872 60.4765 152.872 58.8636H157.816C157.816 65.6657 156.203 70.925 152.977 74.6416C149.751 78.3581 145.228 80.2164 139.408 80.2164Z" fill="#1E1E1E"/>
<path d="M64.9394 66.437V39.1938L95.6537 5.3239H121.214L64.9394 66.437ZM54 78.9542V5.3239H73.4594V78.9542H54ZM97.9678 78.9542L69.4624 41.5079L84.0832 30.1478L122.161 78.9542H97.9678Z" fill="#1E1E1E"/>
<path d="M536.281 182.679V169.531L557.528 145.338H536.281V130.086H580.88V143.234L559.632 167.532H580.88V182.679H536.281Z" fill="#1E1E1E"/>
<path d="M507.122 183.941C503.616 183.941 500.355 183.451 497.34 182.469C494.324 181.487 491.73 180.12 489.556 178.367C487.452 176.543 485.98 174.37 485.138 171.845L500.18 165.955C500.951 167.848 502.038 169.075 503.44 169.636C504.843 170.127 506.07 170.372 507.122 170.372C508.244 170.372 509.156 170.127 509.857 169.636C510.558 169.145 510.909 168.444 510.909 167.532C510.909 166.551 510.418 165.744 509.436 165.113C508.454 164.412 506.947 163.816 504.913 163.325L500.6 162.273C495.902 161.081 492.361 159.012 489.977 156.067C487.592 153.122 486.4 149.686 486.4 145.759C486.4 140.359 488.364 136.187 492.291 133.242C496.288 130.297 501.687 128.824 508.489 128.824C512.627 128.824 516.098 129.35 518.903 130.402C521.778 131.383 524.127 132.786 525.95 134.609C527.774 136.432 529.176 138.536 530.158 140.92L515.537 146.495C515.046 145.093 514.205 144.076 513.012 143.445C511.89 142.814 510.488 142.498 508.805 142.498C507.613 142.498 506.666 142.779 505.965 143.34C505.334 143.901 505.018 144.567 505.018 145.338C505.018 146.18 505.509 146.916 506.491 147.547C507.543 148.108 509.121 148.669 511.224 149.23L515.537 150.282C518.763 151.053 521.568 152.245 523.952 153.858C526.336 155.401 528.194 157.329 529.527 159.643C530.859 161.958 531.525 164.622 531.525 167.638C531.525 171.074 530.508 174.019 528.475 176.473C526.441 178.857 523.601 180.716 519.955 182.048C516.308 183.31 512.031 183.941 507.122 183.941Z" fill="#1E1E1E"/>
<path d="M457.786 182.679V130.086H476.719V182.679H457.786ZM467.252 125.037C464.447 125.037 461.993 123.985 459.889 121.882C457.786 119.778 456.734 117.324 456.734 114.519C456.734 111.644 457.786 109.189 459.889 107.156C461.993 105.052 464.447 104 467.252 104C470.127 104 472.582 105.052 474.615 107.156C476.719 109.189 477.771 111.644 477.771 114.519C477.771 117.324 476.719 119.778 474.615 121.882C472.582 123.985 470.127 125.037 467.252 125.037Z" fill="#1E1E1E"/>
<path d="M423.768 183.941C418.088 183.941 413.039 182.784 408.621 180.47C404.203 178.156 400.732 174.931 398.208 170.793C395.753 166.656 394.526 161.852 394.526 156.383C394.526 150.913 395.753 146.11 398.208 141.972C400.662 137.835 404.063 134.609 408.411 132.295C412.758 129.981 417.772 128.824 423.452 128.824C428.852 128.824 433.585 130.016 437.652 132.4C441.79 134.714 445.015 138.256 447.33 143.024C449.714 147.792 450.906 153.823 450.906 161.116H411.566L413.88 158.381C413.88 160.625 414.231 162.589 414.932 164.272C415.633 165.955 416.685 167.252 418.088 168.164C419.49 169.075 421.208 169.531 423.242 169.531C425.556 169.531 427.554 169.005 429.237 167.953C430.991 166.831 432.078 165.464 432.498 163.851L449.118 169.005C447.855 172.651 445.822 175.597 443.017 177.841C440.282 180.015 437.197 181.592 433.761 182.574C430.395 183.486 427.064 183.941 423.768 183.941ZM413.986 152.596L411.987 149.546H433.761L431.867 152.596C431.867 149.861 431.411 147.722 430.5 146.18C429.588 144.637 428.431 143.55 427.029 142.919C425.696 142.218 424.329 141.867 422.926 141.867C421.454 141.867 420.016 142.218 418.614 142.919C417.281 143.55 416.159 144.637 415.248 146.18C414.406 147.722 413.986 149.861 413.986 152.596Z" fill="#1E1E1E"/>
<path d="M336.35 182.679V109.049H355.284V182.679H336.35ZM369.274 182.679V155.752H388.207V182.679H369.274ZM369.274 155.752C369.274 153.718 369.028 152.07 368.537 150.808C368.116 149.475 367.45 148.459 366.539 147.757C365.697 147.056 364.61 146.671 363.278 146.6C360.613 146.46 358.615 147.056 357.282 148.389C355.95 149.721 355.284 151.825 355.284 154.7H350.13C350.13 149.16 350.971 144.462 352.654 140.605C354.337 136.748 356.616 133.838 359.491 131.874C362.366 129.841 365.627 128.824 369.274 128.824C373.551 128.824 377.092 129.7 379.897 131.454C382.702 133.137 384.771 135.731 386.103 139.237C387.506 142.744 388.207 147.196 388.207 152.596V155.752H369.274Z" fill="#1E1E1E"/>
<path d="M308.737 182.679L307.79 172.897V109.049H326.724V182.679H308.737ZM293.801 183.941C288.822 183.941 284.544 182.855 280.968 180.681C277.462 178.507 274.762 175.351 272.869 171.214C270.975 167.077 270.028 162.133 270.028 156.383C270.028 150.562 270.975 145.619 272.869 141.551C274.762 137.414 277.462 134.259 280.968 132.085C284.544 129.911 288.822 128.824 293.801 128.824C298.148 128.824 301.725 129.911 304.53 132.085C307.405 134.259 309.508 137.414 310.841 141.551C312.243 145.619 312.944 150.562 312.944 156.383C312.944 162.133 312.243 167.077 310.841 171.214C309.508 175.351 307.405 178.507 304.53 180.681C301.725 182.855 298.148 183.941 293.801 183.941ZM298.849 166.481C300.603 166.481 302.145 166.06 303.478 165.218C304.88 164.307 305.967 163.115 306.738 161.642C307.51 160.099 307.895 158.346 307.895 156.383C307.895 154.419 307.51 152.701 306.738 151.229C305.967 149.686 304.88 148.494 303.478 147.652C302.145 146.811 300.567 146.39 298.744 146.39C297.061 146.39 295.554 146.811 294.221 147.652C292.889 148.494 291.837 149.686 291.066 151.229C290.294 152.701 289.874 154.419 289.803 156.383C289.874 158.346 290.294 160.099 291.066 161.642C291.837 163.115 292.889 164.307 294.221 165.218C295.624 166.06 297.166 166.481 298.849 166.481Z" fill="#1E1E1E"/>
<path d="M244.307 182.679V109.049H263.24V182.679H244.307Z" fill="#1E1E1E"/>
<path d="M216.946 182.679L215.894 173.002V130.086H234.827V182.679H216.946ZM182.97 157.014V130.086H201.904V157.014H182.97ZM201.904 157.014C201.904 158.977 202.114 160.625 202.535 161.958C203.026 163.29 203.692 164.307 204.534 165.008C205.445 165.709 206.567 166.095 207.9 166.165C210.564 166.235 212.563 165.604 213.895 164.272C215.228 162.939 215.894 160.871 215.894 158.066H221.048C221.048 163.605 220.206 168.304 218.523 172.161C216.84 176.017 214.561 178.963 211.686 180.996C208.811 182.96 205.55 183.941 201.904 183.941C197.626 183.941 194.085 183.1 191.28 181.417C188.475 179.664 186.371 177.034 184.969 173.528C183.637 170.022 182.97 165.569 182.97 160.169V157.014H201.904Z" fill="#1E1E1E"/>
<path d="M122.691 182.679V109.049H141.624V182.679H122.691ZM155.614 182.679V155.752H174.548V182.679H155.614ZM155.614 155.752C155.614 153.718 155.369 152.07 154.878 150.808C154.457 149.475 153.791 148.459 152.879 147.757C152.038 147.056 150.951 146.671 149.618 146.6C146.954 146.46 144.955 147.056 143.623 148.389C142.29 149.721 141.624 151.825 141.624 154.7H136.47C136.47 149.16 137.312 144.462 138.995 140.605C140.678 136.748 142.957 133.838 145.832 131.874C148.707 129.841 151.968 128.824 155.614 128.824C159.892 128.824 163.433 129.7 166.238 131.454C169.043 133.137 171.111 135.731 172.444 139.237C173.846 142.744 174.548 147.196 174.548 152.596V155.752H155.614Z" fill="#1E1E1E"/>
<path d="M91.6812 183.941C85.9311 183.941 80.812 182.784 76.3241 180.47C71.8361 178.086 68.3299 174.825 65.8054 170.688C63.281 166.481 62.0187 161.712 62.0187 156.383C62.0187 150.983 63.281 146.215 65.8054 142.077C68.3299 137.94 71.8011 134.714 76.2189 132.4C80.6367 130.016 85.7207 128.824 91.4709 128.824C97.0107 128.824 102.095 130.261 106.723 133.137C111.351 136.012 114.647 140.184 116.61 145.654L98.5183 151.544C97.9573 150.142 96.9055 148.985 95.3627 148.073C93.8901 147.161 92.2423 146.706 90.419 146.706C88.6659 146.706 87.1232 147.126 85.7908 147.968C84.4585 148.739 83.4066 149.861 82.6353 151.334C81.8639 152.806 81.4782 154.489 81.4782 156.383C81.4782 158.276 81.8639 159.959 82.6353 161.432C83.4066 162.834 84.4935 163.956 85.896 164.798C87.2985 165.639 88.8763 166.06 90.6294 166.06C92.3825 166.06 93.9953 165.604 95.4679 164.692C96.9405 163.781 97.9924 162.624 98.6235 161.221L116.716 167.006C114.752 172.476 111.456 176.684 106.828 179.629C102.27 182.504 97.221 183.941 91.6812 183.941Z" fill="#1E1E1E"/>
<path d="M28.9262 183.941C25.4901 183.941 22.1241 183.486 18.8283 182.574C15.5325 181.592 12.5172 180.26 9.78232 178.577C7.1176 176.894 4.90869 175.001 3.15559 172.897C1.40249 170.723 0.35062 168.444 0 166.06L19.3542 160.695C19.9854 162.448 21.0723 163.956 22.615 165.218C24.1577 166.41 26.1563 167.077 28.6106 167.217C30.5741 167.287 32.2921 166.761 33.7648 165.639C35.3075 164.517 36.0788 163.044 36.0788 161.221C36.0788 160.029 35.623 158.907 34.7114 157.855C33.8699 156.733 32.5025 155.927 30.6092 155.436L19.5646 152.596C15.7779 151.614 12.5172 150.106 9.78232 148.073C7.1176 146.039 5.04894 143.55 3.57634 140.605C2.17385 137.659 1.4726 134.364 1.4726 130.717C1.4726 123.494 3.85683 117.884 8.62527 113.887C13.4638 109.82 20.2308 107.787 28.9262 107.787C33.5544 107.787 37.6216 108.383 41.1278 109.575C44.7041 110.767 47.7545 112.66 50.279 115.255C52.8736 117.779 55.0124 121.11 56.6953 125.248L37.4463 130.822C37.0956 129.42 36.184 128.017 34.7114 126.615C33.3089 125.212 31.3805 124.511 28.9262 124.511C26.542 124.511 24.6837 125.037 23.3513 126.089C22.0891 127.141 21.458 128.684 21.458 130.717C21.458 131.979 21.9839 133.101 23.0357 134.083C24.0876 134.995 25.5953 135.696 27.5588 136.187L38.7085 139.027C44.3184 140.429 48.7012 143.199 51.8568 147.337C55.0123 151.404 56.5901 156.067 56.5901 161.326C56.5901 166.165 55.4681 170.267 53.2242 173.633C51.0503 176.999 47.8947 179.559 43.7574 181.312C39.6201 183.065 34.6764 183.941 28.9262 183.941Z" fill="#1E1E1E"/>
</svg>
