<svg width="300" height="300" viewBox="0 0 300 300" fill="none" xmlns="http://www.w3.org/2000/svg">
<circle cx="150" cy="150" r="150" fill="black"/>
<path d="M109.001 169.184L92.5636 150.249L145.829 91.5737H178.496L109.001 169.184ZM82.7843 195.608V49.9598H110.249V195.608H82.7843ZM149.367 195.608L114.827 145.256L132.721 126.321L181.617 195.608H149.367Z" fill="white"/>
<path d="M179.277 250.886C172.618 250.886 166.376 249.915 160.55 247.973C154.724 245.893 149.592 242.98 145.153 239.234C140.714 235.35 137.247 230.634 134.75 225.086L158.262 214.266C160.342 217.595 163.186 220.508 166.793 223.005C170.399 225.363 174.56 226.542 179.277 226.542C183.854 226.542 187.391 225.918 189.888 224.669C192.385 223.282 193.633 221.34 193.633 218.844C193.633 216.347 192.593 214.543 190.512 213.434C188.57 212.185 185.866 211.145 182.398 210.313L172.827 207.816C162.839 205.18 154.933 201.019 149.107 195.332C143.419 189.506 140.576 182.847 140.576 175.357C140.576 164.676 143.974 156.423 150.771 150.597C157.707 144.771 167.486 141.858 180.109 141.858C186.628 141.858 192.662 142.829 198.211 144.771C203.898 146.713 208.753 149.418 212.776 152.885C216.799 156.353 219.573 160.376 221.099 164.954L198.419 175.357C197.448 172.583 195.09 170.363 191.345 168.699C187.599 166.896 183.854 165.994 180.109 165.994C176.364 165.994 173.451 166.826 171.37 168.491C169.428 170.017 168.457 172.167 168.457 174.941C168.457 176.744 169.428 178.27 171.37 179.518C173.312 180.628 176.086 181.599 179.693 182.431L193.217 185.76C200.014 187.425 205.424 190.13 209.447 193.875C213.608 197.482 216.59 201.574 218.394 206.151C220.336 210.59 221.307 214.96 221.307 219.26C221.307 225.502 219.434 231.05 215.689 235.905C212.082 240.621 207.089 244.297 200.708 246.933C194.466 249.568 187.322 250.886 179.277 250.886Z" fill="white"/>
</svg>
