<svg viewBox="0 0 32 32" xml:space="preserve" xmlns="http://www.w3.org/2000/svg"><path d="M16 .01c-8.837 0-16 7.163-16 16 0 8.836 7.163 16 16 16s16-7.164 16-16-7.163-16-16-16z" fill="#2c9c91" class="fill-333333"></path><g fill="#FFFFFF" class="fill-ffffff"><path d="M14.284 15.607s1.678-.128 1.678-2.136c0-2.007-1.138-2.996-2.878-2.996l-5.961-.009v11.09h6.099s3.05.096 3.05-3.327c0-.001.224-2.622-1.988-2.622zm-4.943-3.478h3.05s1.044.017 1.044 1.37c0 1.402-1.044 1.402-1.044 1.402h-3.05v-2.772zm3.327 7.763H9.341v-3.327h3.327s1.663.017 1.663 1.663-1.424 1.664-1.663 1.664zM20.985 13.238c-4.166 0-4.159 4.159-4.159 4.159s-.277 4.159 4.159 4.159c0 0 3.881 0 3.881-3.327h-2.218s0 1.663-1.663 1.663c0 0-1.663 0-1.663-2.218h5.545c0-1.109 0-4.436-3.882-4.436zm-1.663 3.327s-.037-1.663 1.663-1.663 1.663 1.663 1.663 1.663h-3.326zM18.767 11.574h4.436v1.109h-4.436z"></path></g></svg>