<svg viewBox="0 0 24 24" xml:space="preserve" xmlns="http://www.w3.org/2000/svg" enable-background="new 0 0 24 24"><path d="m8 8.5-2.5 4h5zM16 8.5l2.5 4h-5zM6.51 15.591c.028 1.385.679 2.629 1.703 3.52l.504-.936 1.761.948-.541 1.006a5.938 5.938 0 0 0 2.068.371c.178 0 .346-.032.519-.047l-.188-1.296 1.979-.288.156 1.076c1.762-.811 2.991-2.443 3.029-4.354H6.51zM13.5 5.675V5.5a4 4 0 0 0-4-4v2a2 2 0 0 1 2 2v.497" fill="none" stroke="#2c9c91" stroke-linecap="round" stroke-linejoin="round" stroke-miterlimit="10" class="stroke-303c42"></path><path d="M15 5.5a6.72 6.72 0 0 0-3 .712A6.72 6.72 0 0 0 9 5.5c-4.142 0-7.5 3.806-7.5 8.5s3.358 8.5 7.5 8.5h6c4.142 0 7.5-3.806 7.5-8.5S19.142 5.5 15 5.5z" fill="none" stroke="#2c9c91" stroke-linecap="round" stroke-linejoin="round" stroke-miterlimit="10" class="stroke-303c42"></path></svg>