<svg viewBox="0 0 512 512" xml:space="preserve" xmlns="http://www.w3.org/2000/svg"><circle cx="99.951" cy="225.569" r="5.857" fill="#1e1e1e" class="fill-000000"></circle><path d="M393.678 114.521c-9.813-2.517-19.994-3.792-30.259-3.792H295.97c-8.089 0-16.097-1.986-23.165-5.748-14.469-7.675-24.05-21.823-25.958-37.812a6.694 6.694 0 0 0-6.647-5.903 6.703 6.703 0 0 0-6.703 6.702v24.47c0 23.215 8.011 45.935 22.552 63.969 12.23 15.195 28.233 26.388 46.488 32.599-3.314.558-6.432 1.146-9.262 1.768-19.994 4.399-36.365 6.448-51.517 6.448-24.556 0-46.128-5.299-74.396-18.28a94.665 94.665 0 0 0-16.855-7.515v-29.771c0-3.239-1.197-6.423-3.528-8.672a11.632 11.632 0 0 0-14.035-1.633 60.752 60.752 0 0 0-17.407 15.556c-3.859 5.105-6.63 9.991-8.47 14.931a40.097 40.097 0 0 0-1.796 6.444c-18.533 4.633-33.709 17.614-41.153 35.467l-.5 1.21v.048a63.38 63.38 0 0 0-1.682 4.906L58.618 221.1a14.995 14.995 0 0 1-1.848 3.986 14.922 14.922 0 0 1-1.411 1.842 14.371 14.371 0 0 1-1.854 1.751l-21.487 18.254a14.623 14.623 0 0 0-3.863 5.083 14.702 14.702 0 0 0-1.354 6.192c0 9.128 6.823 16.837 15.864 17.93.722.088 1.458.133 2.189.133H75.26c2.249 0 4.522.037 6.756.11 11.917.39 22.943 1.867 32.782 4.395 8.496 2.165 16.309 5.183 23.257 8.966l2.661 1.519a77.732 77.732 0 0 1 7.834 5.277l.125.094c.422.31.836.633 1.243.972l.16.129c.453.354.896.725 1.375 1.13.462.386.916.779 1.378 1.188a72.873 72.873 0 0 1 5.358 5.237 78.852 78.852 0 0 1 8.798 11.52c.167.259.326.525.521.851a82.97 82.97 0 0 1 2.527 4.421l29.408 55.373-20.561 37.297-3.731.002c-12.377 0-22.522 9.736-23.171 21.95-.187 3.506.807 7.031 3.125 9.669a12.71 12.71 0 0 0 9.62 4.362h35.997v.003h78.122c8.813 0 15.983-7.182 15.983-16.009 0-3.312-1.037-6.513-2.998-9.256-3.774-5.277-4.037-20.081-.553-31.058 2.913-9.16 5.188-17.049 7.049-24.438 1.086-.046 2.17-.091 3.254-.145l18.349 19.789a19.899 19.899 0 0 1 3.768 21.196l-1.644 3.932h-2.007c-12.845.002-23.284 10.497-23.197 23.361.048 6.995 5.784 12.624 12.778 12.624l41.15.001 8.169-16.808a23.362 23.362 0 0 0-.36 4.056v.284c0 6.874 5.6 12.466 12.484 12.466h77.975c7.969 0 15.018-5.652 16.244-13.526.652-4.185-.362-8.328-2.809-11.734-1.891-2.645-3.02-8.011-3.02-14.353 0-5.465.826-11.3 2.277-16.119 15.35-27.983 23.459-59.628 23.459-91.556v-70.925c0-27.83-9.14-54.024-26.428-75.744-16.459-20.724-39.578-35.73-65.089-42.253zm5.987 15.416c18.021 6.395 34.273 17.59 46.72 32.261-3.75 10.511-10.156 19.839-18.721 27.295-12.164-5.36-25.134-8.084-38.621-8.084h-3.688c9.288-13.482 14.459-29.876 14.459-46.727a85.184 85.184 0 0 0-.149-4.745zm-36.246-6.208c7.737 0 15.415.819 22.888 2.421a71.77 71.77 0 0 1 .507 8.531c0 17.503-6.577 34.393-18.134 46.802h-33.139c-4.742 0-9.445-.384-14.074-1.12 10.734-13.434 16.541-29.805 16.541-47.141 0-3.192-.225-6.363-.623-9.493h26.034zm-103.487 15.706a89.364 89.364 0 0 1-13.124-39.59 62.437 62.437 0 0 0 16.739 14.815c.064 1.164.109 2.334.109 3.507a62.63 62.63 0 0 1-3.724 21.268zm8.984 12.049a75.491 75.491 0 0 0 7.699-30.826 62.768 62.768 0 0 0 19.354 3.071h28.304c.48 3.111.734 6.289.734 9.493 0 16.365-6.274 31.711-17.777 43.655-14.804-4.94-27.918-13.638-38.314-25.393zM74.4 213.608a49.625 49.625 0 0 1 1.727-4.871l.126-.309c6.306-14.809 20.034-25.645 35.908-28.314l5.421-.932v-5.214c.251-2.752.811-5.302 1.665-7.589 1.395-3.745 3.573-7.551 6.654-11.626a47.728 47.728 0 0 1 11.605-10.917V172.8l-.009.345c-.006.591-.058 1.17-.161 1.785-.176 1.07-.492 2.1-.946 3.076-1.229 2.661-3.356 4.764-5.992 5.92-1.382.606-2.843.93-4.348.959-6.896.142-13.417 1.518-19.375 4.088a48.24 48.24 0 0 0-10.191 5.96c-11.585 8.777-18.128 21.526-21.697 31.399-.331-.475-.676-.939-.986-1.43l-1.968-2.645 2.567-8.649zM45 263.27h-.146c-.208 0-.409-.013-.621-.038-2.526-.306-4.432-2.466-4.432-5.024 0-.269.055-.523.161-.754.109-.237.259-.434.467-.61l2.358-2.003c1.462 2.069 2.286 4.531 2.286 7.121.001.438-.027.875-.073 1.308zm73.021 4.91c-10.745-2.759-22.715-4.372-35.579-4.793a219.845 219.845 0 0 0-7.182-.117H58.038a25.268 25.268 0 0 0-5.315-16.873l8.923-7.583a27.28 27.28 0 0 0 3.417-3.236c.063-.069.118-.146.18-.218a51.815 51.815 0 0 0 8.463 8.825 51.818 51.818 0 0 0 27.043 11.485 32.423 32.423 0 0 1 13.575 4.792c3.812 2.397 7.12 5.639 9.635 9.397a125.707 125.707 0 0 0-5.938-1.679zm38.198 16.231-.704 1.116a90.055 90.055 0 0 0-6.518-4.466l-3.148-2.803-10.454-14.686a45.523 45.523 0 0 0-14.133-14.107 45.503 45.503 0 0 0-19.026-6.711 38.812 38.812 0 0 1-17.044-6.252c2.008-7.185 6.78-20.216 16.573-29.07l20.417 6.871a71.455 71.455 0 0 1 30.042 21.646 43.115 43.115 0 0 1 9.657 27.153 43.062 43.062 0 0 1-5.662 21.309zM281.255 433.03c.38.531.573 1.102.573 1.694 0 1.25-.926 3.009-2.983 3.009h-62.62l8.83-9.99h30.292a6.5 6.5 0 1 0 0-13h-2.521l8.905-28.495 4.395-4.973c2.988-3.38 5.697-7.052 8.114-10.916 1.472.014 2.945.041 4.417.041 2.051 0 4.098-.017 6.145-.044-1.62 6.118-3.545 12.675-5.912 20.118-4.185 13.177-4.777 32.57 2.365 42.556zm-44.71-18.287 4.116-4.657-1.456 4.657h-2.66zm122.019-42.927a30.326 30.326 0 0 0-.039 31.984l.341.55-16.225 33.382-32.791-.001c.116-5.524 4.646-9.984 10.196-9.985l20.971-.002a6.5 6.5 0 0 0-.002-13l-4.918.001c4.375-11.611 1.841-24.822-6.637-33.967l-11.203-12.084a444.812 444.812 0 0 0 42.412-5.717 71.403 71.403 0 0 0 2.232 1.869l-4.337 6.97zm5.932 50.689 9.192-18.911-4.11-6.638c-3.491-5.638-3.483-12.637.021-18.267l4.123-6.625a69.703 69.703 0 0 0 21.416 7.437l10.342 10.351a20.607 20.607 0 0 1 4.666 21.904l-1.141 2.983h-27.217c-6.864 0-13.039 3.004-17.292 7.766zm107.701-134.186v15.067c0 30.051-7.625 59.609-22.16 85.91l-.313.565-.195.615c-1.979 6.238-3.068 13.568-3.068 20.64 0 6.522.944 15.619 5.453 21.925.377.525.568 1.092.568 1.682 0 1.248-.93 3.007-2.998 3.007h-77.896c.133-5.532 4.658-9.991 10.201-9.991h44.205a6.5 6.5 0 1 0 0-13h-3.139c3.861-11.935.754-25.138-8.18-34.077l-.391-.392a51.638 51.638 0 0 0 19.248-5.897c3.379-1.816 4.35-6.224 2.088-9.323l-.182-.249a6.345 6.345 0 0 0-8.129-1.842c-5.641 3.02-11.913 4.595-18.41 4.595h-1.544c-12.747 0-24.838-4.072-34.968-11.781-8.593-6.528-15.11-15.249-18.849-25.22a55.416 55.416 0 0 1-3.526-18.948 56.597 56.597 0 0 1 5.238-24.411c1.387-2.987.373-6.532-2.454-8.221l-.259-.154c-3.24-1.937-7.434-.627-9.028 2.794a69.56 69.56 0 0 0-6.495 30.124 68.337 68.337 0 0 0 4.352 23.38 69.108 69.108 0 0 0 8.898 16.475c-22.707 3.74-45.965 5.686-69.432 5.798a82.305 82.305 0 0 0 5.917-30.586v-32.96a6.347 6.347 0 0 0-6.347-6.347h-.307a6.347 6.347 0 0 0-6.347 6.347v32.96a69.348 69.348 0 0 1-9.546 35.081 69.736 69.736 0 0 1-7.82 10.782l-57.508 65.064H164.95c.114-5.523 4.646-9.981 10.205-9.981l20.967-.008a6.5 6.5 0 0 0 6.498-6.502v-.001a6.5 6.5 0 0 0-6.501-6.497h-2.386l28.242-51.232a6.346 6.346 0 0 0-2.493-8.621l-.268-.148a6.348 6.348 0 0 0-8.624 2.494l-3.647 6.616-25.426-47.874c-.24-.451-.491-.89-.736-1.335l11.642-16.178c4.631-6.436 7.592-13.757 8.727-21.483.559-3.806-2.448-7.208-6.295-7.208h-.313c-3.126 0-5.803 2.274-6.263 5.367a35.885 35.885 0 0 1-6.407 15.73l-8.69 12.075a90.217 90.217 0 0 0-5.443-6.483 88.667 88.667 0 0 0-2.265-2.35l1.818-2.884.137-.229a56.08 56.08 0 0 0 7.455-27.896 56.157 56.157 0 0 0-12.579-35.365 84.478 84.478 0 0 0-35.641-25.639l-9.146-3.082a40.391 40.391 0 0 1 8.797-1.136 24.19 24.19 0 0 0 6.073-.896l17.71 9.992c14.47 8.164 25.767 20.012 32.667 34.262 2.001 4.133 3.581 8.302 4.72 12.452.875 3.188 3.989 5.211 7.242 4.634l.304-.055c3.701-.656 5.993-4.359 5-7.984-1.35-4.93-3.212-9.854-5.565-14.713-8.06-16.644-21.193-30.447-37.98-39.918l-11.798-6.656a24.995 24.995 0 0 0 3.105-4.762 81.418 81.418 0 0 1 13.357 6.125l.52.269c29.835 13.731 53.787 19.591 80.091 19.591 16.117 0 33.375-2.146 54.308-6.752 17.305-3.8 46.945-6.382 63.084-7.585 3.875-.295 7.848-.575 12.139-.856 3.283-.211 5.957-.366 7.805-.474l1.296-.071h1.21v-.066l.165-.009h7.278c12.908 0 25.263 2.87 36.728 8.534 28.638 14.108 46.427 42.697 46.427 74.61v10.766zm-32.338-92.403c6.395-6.299 11.615-13.565 15.489-21.548 10.413 16.354 16.155 34.966 16.776 54.584-7.767-13.288-18.745-24.659-32.265-33.036z" fill="#1e1e1e" class="fill-000000"></path></svg>